<?xml version="1.0" encoding="UTF-8"?><svg id="_2" xmlns="http://www.w3.org/2000/svg" viewBox="0 0 800 624.41"><defs><style>.cls-1{fill:#fff;}</style></defs><path class="cls-1" d="m798.04,84.65c-3.32-16.8-10.82-32.68-21.76-46.04-2.22-2.8-4.55-5.3-7.09-7.83-19.46-19.56-46.53-30.78-74.27-30.78H105.07c-28.05,0-54.43,10.94-74.28,30.79-2.51,2.51-4.84,5.03-7.15,7.92-10.89,13.3-18.35,29.15-21.6,45.98-1.36,6.61-2.04,13.45-2.04,20.38v414.28c0,14.41,2.93,28.45,8.73,41.79,5.02,11.85,12.65,23.08,22.05,32.48,2.37,2.36,4.72,4.53,7.23,6.65,18.8,15.57,42.61,24.14,67.05,24.14h589.86c24.6,0,48.38-8.6,67.14-24.31,2.51-2.03,4.83-4.16,7.15-6.48,9.09-9.08,16.32-19.52,21.51-31.02l.68-1.64c5.7-13.09,8.59-27.08,8.59-41.61V105.07c0-6.84-.66-13.73-1.96-20.43ZM54.41,67.06c1.49-2.17,3.38-4.41,5.8-6.85,12.01-12.01,27.95-18.62,44.85-18.62h589.86c17.05,0,32.99,6.62,44.87,18.64,2.05,2.07,4.01,4.38,5.72,6.68l4.51,6.06-314.84,274.4c-9.71,8.51-22.2,13.19-35.19,13.19s-25.35-4.67-35.17-13.18L50.3,73.05l4.11-5.99Zm-12.61,455.95c-.17-1.13-.21-2.38-.21-3.66V113.65l244.33,213.14-241.86,210.88-2.26-14.66Zm684.6,51.45c-9.46,5.46-20.35,8.35-31.48,8.35H105.07c-11.14,0-22.02-2.89-31.47-8.35l-9.89-5.73,249.9-217.78,27.39,23.82c16.43,14.26,37.38,22.13,59,22.13s42.69-7.86,59.1-22.13l27.38-23.83,249.81,217.8-9.89,5.72Zm31.99-55.11c0,1.25-.02,2.5-.18,3.6l-2.17,14.8-241.97-210.84,244.31-213.15v405.6Z"/></svg>