<?xml version="1.0" encoding="UTF-8"?><svg id="Layer_1" xmlns="http://www.w3.org/2000/svg" viewBox="0 0 533.32 530.05"><defs><style>.cls-1{fill:#fff;}</style></defs><path class="cls-1" d="m533.31,263.39c-.62-50.82-15.76-100.4-43.62-142.9s-67.28-76.16-113.63-97.01C329.72,2.62,278.38-4.55,228.09,2.81c-50.29,7.35-97.42,28.92-135.86,62.16C53.79,98.21,25.65,141.75,11.12,190.45c-14.52,48.7-14.83,100.54-.88,149.41s41.57,92.73,79.62,126.43c38.04,33.7,84.92,55.82,135.12,63.76v-189h-66.67v-77.67h66.67v-59c-1.54-13.72-.06-27.61,4.36-40.69,4.41-13.08,11.64-25.03,21.18-35.02,9.54-9.98,21.15-17.75,34.01-22.75,12.87-5,26.68-7.12,40.45-6.21,19.99.27,39.94,2.06,59.67,5.33v66.67h-33.33c-5.75-.72-11.59-.15-17.08,1.69-5.5,1.83-10.51,4.88-14.67,8.91-4.16,4.03-7.36,8.95-9.36,14.38-2.01,5.44-2.76,11.25-2.22,17.02v50.33h74l-12,77.67h-61.67v186.67c63-9.96,120.34-42.18,161.62-90.8,41.28-48.62,63.77-110.42,63.38-174.2Z"/></svg>