<?xml version="1.0" encoding="UTF-8"?><svg id="Layer_1" xmlns="http://www.w3.org/2000/svg" viewBox="0 0 549.98 550"><defs><style>.cls-1{fill:#fff;}</style></defs><path class="cls-1" d="m386.12,0h-222.27C73.39.07.07,73.39,0,163.85v222.27c.06,90.47,73.38,163.81,163.85,163.88h222.27c90.47-.08,163.78-73.41,163.85-163.88v-222.27C549.93,73.38,476.6.04,386.12,0Zm108.55,386.12c-.01,59.94-48.61,108.54-108.55,108.55h-222.27c-59.94,0-108.53-48.59-108.53-108.52v-222.3c-.01-59.92,48.55-108.51,108.48-108.53h222.32c59.93.01,108.51,48.59,108.52,108.53l.02,222.27Z"/><path class="cls-1" d="m275,132.8c-78.45,0-142.2,63.78-142.2,142.2s63.78,142.2,142.2,142.2,142.2-63.78,142.2-142.2-63.75-142.2-142.2-142.2Zm0,229.08c-47.98,0-86.88-38.88-86.89-86.86,0-47.98,38.88-86.88,86.86-86.89,47.98,0,86.88,38.88,86.89,86.86,0,47.98-38.88,86.88-86.86,86.89ZM417.5,99.78c18.82.01,34.06,15.28,34.05,34.1-.01,18.82-15.28,34.06-34.1,34.05-18.8-.01-34.04-15.25-34.05-34.05,0-18.8,12.75-34.1,34.1-34.1Z"/></svg>