<?xml version="1.0" encoding="UTF-8"?><svg id="Layer_1" xmlns="http://www.w3.org/2000/svg" viewBox="0 0 693.33 480"><defs><style>.cls-1{fill:#fff;fill-rule:evenodd;}</style></defs><path class="cls-1" d="m26.67,0C11.94,0,0,11.94,0,26.67s11.94,26.67,26.67,26.67h640c14.73,0,26.67-11.94,26.67-26.67s-11.94-26.67-26.67-26.67H26.67ZM0,240c0-14.73,11.94-26.67,26.67-26.67h640c14.73,0,26.67,11.94,26.67,26.67s-11.94,26.67-26.67,26.67H26.67c-14.73,0-26.67-11.94-26.67-26.67Zm0,213.33c0-14.73,11.94-26.67,26.67-26.67h640c14.73,0,26.67,11.94,26.67,26.67s-11.94,26.67-26.67,26.67H26.67c-14.73,0-26.67-11.94-26.67-26.67Z"/></svg>