<?xml version="1.0" encoding="UTF-8" standalone="no"?>
<!DOCTYPE svg PUBLIC "-//W3C//DTD SVG 1.1//EN" "http://www.w3.org/Graphics/SVG/1.1/DTD/svg11.dtd">
<svg width="100%" height="100%" viewBox="0 0 363 65" version="1.1" xmlns="http://www.w3.org/2000/svg" xmlns:xlink="http://www.w3.org/1999/xlink" xml:space="preserve" xmlns:serif="http://www.serif.com/" style="fill-rule:evenodd;clip-rule:evenodd;stroke-linejoin:round;stroke-miterlimit:2;">
    <g>
        <path d="M5.8,9.1C6.5,9.6 7,10.3 7.4,11L11,17.1L10.2,17.1L6.7,11C6.2,10.2 5.5,9.1 4.2,9.1L0.7,9.1L0.7,17.1L0.1,17.1L0.1,0.4L5.7,0.4C8.8,0.4 10.9,1.6 10.9,4.8C10.9,7.5 9.2,8.9 5.8,9.1ZM5.7,1L0.7,1L0.7,8.5L5.6,8.5C8.1,8.5 10.1,7.6 10.1,4.8C10.2,1.8 8.1,1 5.7,1Z" style="fill:white;fill-rule:nonzero;"/>
        <path d="M26.7,17.1L16.3,17.1L16.3,0.4L26.7,0.4L26.7,1L17,1L17,8.1L25.5,8.1L25.5,8.7L17,8.7L17,16.5L26.7,16.5L26.7,17.1Z" style="fill:white;fill-rule:nonzero;"/>
        <path d="M41.9,1L32.4,1L32.4,8.1L40.9,8.1L40.9,8.7L32.4,8.7L32.4,17.1L31.7,17.1L31.7,0.4L41.9,0.4L41.9,1Z" style="fill:white;fill-rule:nonzero;"/>
        <path d="M58.4,9.9C58.4,14.2 57.1,17.3 52.5,17.3C47.9,17.3 46.6,14 46.6,9.9L46.6,0.4L47.3,0.4L47.3,10C47.3,13.4 48.2,16.7 52.6,16.7C57,16.7 57.9,13.4 57.9,10L57.9,0.4L58.6,0.4L58.6,9.9L58.4,9.9Z" style="fill:white;fill-rule:nonzero;"/>
        <path d="M75.3,8.7L75.3,17.1L74.6,17.1L74.6,13.7C73.7,16.4 72,17.3 69.6,17.3C64.7,17.3 63.1,13 63.1,8.7C63.1,4.4 64.9,0.1 69.7,0.1C71.9,0.1 73.2,0.9 74.6,2.5L74.1,3C72.9,1.6 71.7,0.9 69.7,0.9C64.9,0.9 63.7,5.1 63.7,8.8C63.7,12.4 64.9,16.7 69.6,16.7C73.7,16.7 74.6,13 74.6,9.4L70.1,9.4L70.1,8.7L75.3,8.7Z" style="fill:white;fill-rule:nonzero;"/>
        <path d="M91.1,17.1L80.7,17.1L80.7,0.4L91.1,0.4L91.1,1L81.4,1L81.4,8.1L89.9,8.1L89.9,8.7L81.4,8.7L81.4,16.5L91.1,16.5L91.1,17.1Z" style="fill:white;fill-rule:nonzero;"/>
    </g>
    <g>
        <path d="M24.6,64.1L20.8,64.1L20.8,48.6L3.9,48.6L3.9,64.1L0.1,64.1L0.1,30.6L3.9,30.6L3.9,45L20.8,45L20.8,30.6L24.6,30.6L24.6,64.1Z" style="fill:white;fill-rule:nonzero;"/>
        <path d="M62.3,64.1L58.2,64.1L54.6,54.5L40.2,54.5L36.6,64.1L32.5,64.1L45.4,30.6L49.4,30.6L62.3,64.1ZM53.3,51.2L47.4,35.6L41.5,51.2L53.3,51.2Z" style="fill:white;fill-rule:nonzero;"/>
        <path d="M90.2,30.6L78.8,64.1L74.9,64.1L63.6,30.6L67.6,30.6L76.9,58.5L86.2,30.6L90.2,30.6Z" style="fill:white;fill-rule:nonzero;"/>
        <path d="M112.6,48.9C113.5,49.6 114.3,50.7 115,51.7L122.6,64.1L118.1,64.1L111.1,52.3C110.1,50.6 109.1,49.2 106.7,49.2L102.2,49.2L102.2,64.1L98.4,64.1L98.4,30.6L110.1,30.6C116.4,30.6 121,33.4 121,40C121.1,44.9 118.1,48.1 112.6,48.9ZM110.1,34.3L102.2,34.3L102.2,45.8L110.1,45.8C114,45.8 117.2,44.6 117.2,40C117.2,35.5 114,34.3 110.1,34.3Z" style="fill:white;fill-rule:nonzero;"/>
        <path d="M153.4,64.1L131.6,64.1L131.6,30.6L153.4,30.6L153.4,34.3L135.4,34.3L135.4,45L151.1,45L151.1,48.6L135.4,48.6L135.4,60.4L153.4,60.4L153.4,64.1Z" style="fill:white;fill-rule:nonzero;"/>
        <path d="M207.6,64.1L203.5,64.1L199.9,54.5L185.5,54.5L181.9,64.1L177.8,64.1L190.7,30.6L194.7,30.6L207.6,64.1ZM198.6,51.2L192.7,35.6L186.8,51.2L198.6,51.2Z" style="fill:white;fill-rule:nonzero;"/>
        <path d="M239,64.1L235.5,64.1L219.3,38L219.3,64.1L215.5,64.1L215.5,30.6L219,30.6L235.1,56.7L235.1,30.6L238.9,30.6L238.9,64.1L239,64.1Z" style="fill:white;fill-rule:nonzero;"/>
        <rect x="250.5" y="30.6" width="3.8" height="33.5" style="fill:white;fill-rule:nonzero;"/>
        <path d="M294.6,64.1L290.7,64.1L290.7,40.1L281.5,64.1L278.6,64.1L269.4,40.2L269.4,64.1L265.6,64.1L265.6,30.6L269.4,30.6L280.1,58.4L290.9,30.6L294.6,30.6L294.6,64.1Z" style="fill:white;fill-rule:nonzero;"/>
        <path d="M332,64.1L327.9,64.1L324.3,54.5L309.9,54.5L306.3,64.1L302.2,64.1L315.1,30.6L319.1,30.6L332,64.1ZM323,51.2L317.1,35.6L311.2,51.2L323,51.2Z" style="fill:white;fill-rule:nonzero;"/>
        <path d="M359.7,64.1L339.9,64.1L339.9,30.6L343.7,30.6L343.7,60.5L359.7,60.5L359.7,64.1Z" style="fill:white;fill-rule:nonzero;"/>
    </g>
</svg>
