<?xml version="1.0" encoding="UTF-8"?><svg id="Layer_1" xmlns="http://www.w3.org/2000/svg" viewBox="0 0 550.02 447.01"><defs><style>.cls-1{fill:#fff;}</style></defs><path class="cls-1" d="m172.98,447.01c-63.7,0-123.03-18.67-172.98-50.8,59.66,7.25,119.76-9.55,167.03-46.68-48.29-.88-90.66-32.42-105.38-78.43,6.9,1.35,13.98,2.05,21.2,2.05,10.3,0,20.3-1.4,29.82-3.9-52.64-10.66-90.5-56.91-90.55-110.63v-1.48c15.64,8.72,33.15,13.55,51.05,14.1-31.41-20.93-50.26-56.2-50.2-93.95,0-20.6,5.62-40.05,15.3-56.7,57.3,70.5,141.84,113.35,232.58,117.88-14.12-60.75,23.69-121.44,84.44-135.55,39.21-9.11,80.3,3.34,107.86,32.68,25.26-5,49.49-14.25,71.65-27.35-8.43,26.12-26.04,48.31-49.57,62.45,22.36-2.67,44.2-8.65,64.8-17.75-15.19,22.63-34.25,42.41-56.3,58.42.2,4.82.35,9.7.35,14.58-.02,149.05-113.55,321.08-321.1,321.05"/></svg>